<svg width="32" height="32" viewBox="0 0 32 32" fill="none" xmlns="http://www.w3.org/2000/svg">
<rect width="32" height="32" fill="#CD3147"/>
<path d="M22.3281 21.9082C21.1172 21.9082 20.0299 21.6934 19.0664 21.2637C18.1159 20.821 17.3607 20.1699 16.8008 19.3105C16.2539 18.4512 15.9805 17.3965 15.9805 16.1465C15.9805 15.2871 16.1367 14.4928 16.4492 13.7637C16.7617 13.0215 17.1979 12.377 17.7578 11.8301C18.3307 11.2832 19.0208 10.86 19.8281 10.5605C20.6484 10.248 21.5729 10.0918 22.6016 10.0918C23.1484 10.0918 23.7214 10.1504 24.3203 10.2676C24.9323 10.3717 25.4531 10.5215 25.8828 10.7168L25.9805 13.334L25.0234 13.4121L24.4375 11.6543C24.1771 11.485 23.8581 11.3678 23.4805 11.3027C23.1029 11.2246 22.7513 11.1855 22.4258 11.1855C21.4883 11.1855 20.7201 11.3874 20.1211 11.791C19.5221 12.1816 19.0794 12.722 18.793 13.4121C18.5065 14.1022 18.3633 14.877 18.3633 15.7363C18.3633 16.804 18.5521 17.722 18.9297 18.4902C19.3073 19.2454 19.8151 19.8184 20.4531 20.209C21.1042 20.5996 21.8268 20.7949 22.6211 20.7949C22.9336 20.7949 23.2786 20.7493 23.6562 20.6582C24.0469 20.5671 24.3919 20.4173 24.6914 20.209L24.2617 21.2832V19.2324C24.2617 18.8548 24.2552 18.5033 24.2422 18.1777C24.2292 17.8522 24.2096 17.6048 24.1836 17.4355L22.8359 17.2012L22.875 16.3613H27.0156L27.0742 17.1621L26.1758 17.416C26.1628 17.4941 26.1562 17.6634 26.1562 17.9238C26.1693 18.1842 26.1758 18.4837 26.1758 18.8223C26.1758 19.1868 26.1823 19.5254 26.1953 19.8379C26.2083 20.1374 26.2214 20.4694 26.2344 20.834C25.7005 21.1725 25.0755 21.4395 24.3594 21.6348C23.6562 21.8171 22.9792 21.9082 22.3281 21.9082Z" fill="white"/>
<path d="M13.8125 21.8301C13.4479 21.791 13.0833 21.765 12.7188 21.752C12.3542 21.7389 12.0156 21.7324 11.7031 21.7324H4.98438L4.92578 20.9121L6.15625 20.6387C6.18229 20.5736 6.20182 20.4173 6.21484 20.1699C6.22786 19.9225 6.23438 19.5905 6.23438 19.1738C6.2474 18.7572 6.25391 18.2689 6.25391 17.709V14.3105C6.25391 13.7376 6.2474 13.2428 6.23438 12.8262C6.23438 12.3965 6.22786 12.0579 6.21484 11.8105C6.20182 11.5632 6.18229 11.4134 6.15625 11.3613L4.92578 11.0879L4.98438 10.2676H11.1953C11.3906 10.2676 11.6185 10.2676 11.8789 10.2676C12.1393 10.2546 12.4062 10.2415 12.6797 10.2285C12.9531 10.2155 13.2135 10.2025 13.4609 10.1895L13.8711 12.8652L12.9336 13.002L12.25 11.3418C12.1198 11.3158 11.9896 11.2962 11.8594 11.2832C11.7292 11.2702 11.5924 11.2637 11.4492 11.2637H9.47656C9.22917 11.2637 9.0013 11.2702 8.79297 11.2832C8.59766 11.2832 8.41536 11.2962 8.24609 11.3223C8.24609 11.3874 8.23958 11.5371 8.22656 11.7715C8.22656 12.0059 8.22005 12.2858 8.20703 12.6113C8.20703 12.9238 8.20703 13.2559 8.20703 13.6074V18.5098C8.20703 18.8223 8.20703 19.1217 8.20703 19.4082C8.22005 19.6816 8.22656 19.929 8.22656 20.1504C8.23958 20.3587 8.24609 20.5085 8.24609 20.5996C8.44141 20.6126 8.64323 20.6257 8.85156 20.6387C9.07292 20.6517 9.33333 20.6582 9.63281 20.6582H11.2734C11.5729 20.6582 11.8073 20.6582 11.9766 20.6582C12.1589 20.6452 12.2956 20.6322 12.3867 20.6191C12.4909 20.6061 12.582 20.5931 12.6602 20.5801L13.6953 18.7051L14.6328 18.8809L13.8125 21.8301ZM11.5469 17.748L11.332 16.4395C11.2539 16.4134 11.1302 16.3939 10.9609 16.3809C10.7917 16.3678 10.5898 16.3613 10.3555 16.3613H9.00781C8.82552 16.3613 8.63672 16.3678 8.44141 16.3809C8.24609 16.3939 8.05078 16.4069 7.85547 16.4199V15.2676C8.05078 15.2806 8.24609 15.2936 8.44141 15.3066C8.63672 15.3066 8.82552 15.3066 9.00781 15.3066H10.3555C10.5898 15.3066 10.7917 15.3001 10.9609 15.2871C11.1302 15.2741 11.2539 15.2676 11.332 15.2676L11.5469 13.9199H12.4453V17.748H11.5469Z" fill="white"/>
</svg>
